<svg width="24" height="24" viewBox="0 0 24 24" fill="none" xmlns="http://www.w3.org/2000/svg">
    <path d="M20 10C20 14.993 14.461 20.193 12.601 21.799C12.245 22.0667 11.755 22.0667 11.399 21.799C9.539 20.193 4 14.993 4 10C4 5.58468 7.58468 2 12 2C16.4153 2 20 5.58468 20 10" stroke="#E88411" stroke-width="2" stroke-linecap="round" stroke-linejoin="round"/>
    <path d="M9 10C9 11.6557 10.3443 13 12 13C13.6557 13 15 11.6557 15 10C15 8.34425 13.6557 7 12 7C10.3443 7 9 8.34425 9 10V10" stroke="#E88411" stroke-width="2" stroke-linecap="round" stroke-linejoin="round"/>
</svg>
