<svg width="20" height="20" viewBox="0 0 20 20" fill="none" xmlns="http://www.w3.org/2000/svg">
    <path d="M16.6663 8.33335C16.6663 12.4942 12.0505 16.8275 10.5005 18.1659C10.2039 18.3889 9.79548 18.3889 9.49884 18.1659C7.94884 16.8275 3.33301 12.4942 3.33301 8.33335C3.33301 4.65392 6.32024 1.66669 9.99967 1.66669C13.6791 1.66669 16.6663 4.65392 16.6663 8.33335" stroke="#9CA3AF" stroke-width="1.66667" stroke-linecap="round" stroke-linejoin="round"/>
    <path d="M7.5 8.33331C7.5 9.7131 8.62021 10.8333 10 10.8333C11.3798 10.8333 12.5 9.7131 12.5 8.33331C12.5 6.95353 11.3798 5.83331 10 5.83331C8.62021 5.83331 7.5 6.95353 7.5 8.33331V8.33331" stroke="#9CA3AF" stroke-width="1.66667" stroke-linecap="round" stroke-linejoin="round"/>
</svg>
