<svg width="20" height="20" viewBox="0 0 20 20" fill="none" xmlns="http://www.w3.org/2000/svg">
    <path d="M11.5265 13.8066C11.881 13.9694 12.301 13.8645 12.5373 13.5541L12.8332 13.1666C13.1479 12.7469 13.6419 12.5 14.1665 12.5H16.6665C17.587 12.5 18.3332 13.2462 18.3332 14.1666V16.6666C18.3332 17.5871 17.587 18.3333 16.6665 18.3333C8.38223 18.3333 1.6665 11.6176 1.6665 3.33329C1.6665 2.41282 2.4127 1.66663 3.33317 1.66663H5.83317C6.75365 1.66663 7.49984 2.41282 7.49984 3.33329V5.83329C7.49984 6.35789 7.25285 6.85187 6.83317 7.16663L6.44317 7.45913C6.12773 7.69998 6.02592 8.12988 6.19984 8.48663C7.33874 10.7998 9.21186 12.6706 11.5265 13.8066" stroke="#9CA3AF" stroke-width="1.66667" stroke-linecap="round" stroke-linejoin="round"/>
</svg>
